<?xml version="1.0" encoding="utf-8"?>
<!-- Generator: Adobe Illustrator 24.0.0, SVG Export Plug-In . SVG Version: 6.00 Build 0)  -->
<svg version="1.1" xmlns="http://www.w3.org/2000/svg" xmlns:xlink="http://www.w3.org/1999/xlink" x="0px" y="0px" width="180px"
	 height="180px" viewBox="0 0 180 180" style="enable-background:new 0 0 180 180;" xml:space="preserve">
<style type="text/css">
	.st0{display:none;}
	.st1{fill:#231F20;}
	.st2{fill:#DCB58F;}
	.st3{fill:#CFA785;}
	.st4{fill:#B63544;}
	.st5{fill:#FFFFFF;}
	.st6{fill:#628FBE;}
</style>
<g id="Layer_1" class="st0">
</g>
<g id="Layer_2">
	<g>
		<ellipse class="st1" cx="89.68" cy="32.17" rx="13.78" ry="12.76"/>
		<path class="st2" d="M167.23,179.95H12.44c1.64-6.9,4.48-13.41,8.34-19.38c0.97-1.52,2.01-3.01,3.11-4.45
			c0.71-0.93,1.45-1.85,2.22-2.75c2.25-2.67,4.74-5.19,7.42-7.55c0.7-0.61,1.39-1.2,2.11-1.79c2.7-2.21,5.58-4.26,8.62-6.11
			c0.42-0.26,0.85-0.52,1.27-0.77c10.19-5.99,16.28-16.27,16.28-27.23v-5.94h56.03v5.94c0,10.97,6.1,21.24,16.29,27.23
			c0.55,0.33,1.11,0.66,1.65,0.99c3,1.86,5.84,3.9,8.5,6.11c0.74,0.61,1.47,1.24,2.19,1.88c2.63,2.34,5.06,4.84,7.28,7.48
			c0.79,0.94,1.57,1.91,2.3,2.89c1.06,1.4,2.06,2.84,3,4.32C162.82,166.72,165.6,173.16,167.23,179.95z"/>
		<g>
			<path class="st1" d="M87.44,167.66c-1.35,2.94-0.04,6.82,2.81,8.34c2.85,1.53,6.8,0.47,8.5-2.28c-1.72-0.01-3.43-0.75-4.61-2.01
				c-1.18-1.26-1.82-3.01-1.73-4.73c0.04-0.69,0.19-1.38,0.16-2.08c-0.05-1.34-1.34-2.8-2.64-1.73
				C88.94,163.99,87.97,166.5,87.44,167.66z"/>
			<ellipse class="st1" cx="90.55" cy="157.84" rx="4.64" ry="6.65"/>
			<path class="st2" d="M121.24,90.04l-3.11-0.26l1.96-23.43l3.8,0.32c3.24,0.27,5.53,3.6,4.99,7.24l-1.59,10.72
				C126.81,87.92,124.16,90.28,121.24,90.04z"/>
			<path class="st2" d="M58.99,90.04l3.11-0.26l-1.96-23.43l-3.8,0.32c-3.24,0.27-5.53,3.6-4.99,7.24l1.59,10.72
				C53.42,87.92,56.07,90.28,58.99,90.04z"/>
			<path class="st2" d="M124.18,51.46v32.16l-10.43,39.44c-1.51,1.12-3.16,2.04-4.9,2.74c-2.53,1.03-5.26,1.59-8.12,1.59H79.78
				c-1.75,0-4.96-1.73-8.05-3.59c-2.9-1.74-5.69-3.61-7.1-4.29l-8.1-37.71l-0.2-0.92V51.46c0-9.04,4.25-16.98,10.68-21.56
				c3.67-2.62,8.06-4.14,12.77-4.14h20.95c0.76,0,1.51,0.04,2.26,0.12c3.85,0.41,7.42,1.82,10.5,4.02
				C119.93,34.48,124.18,42.42,124.18,51.46z"/>
			<path class="st3" d="M124.18,81.56v2.06l-10.43,39.44c-1.51,1.12-3.16,2.04-4.9,2.74l-3.53-28.14L124.18,81.56z"/>
			<path class="st3" d="M75.03,97.66l-3.3,26.14c-2.9-1.74-5.69-3.61-7.1-4.29l-8.1-37.71L75.03,97.66z"/>
			<path class="st1" d="M112.54,31.11c-3.93,10.57-11.89,16.99-23.51,16.99c-11.61,0-17.76-7.07-21.78-16.15
				c4.02-2.62,5.15-6.07,10.31-6.07h22.95c0.84,0,1.66,0.04,2.48,0.13C107.22,26.42,109.17,28.91,112.54,31.11z"/>
			<g>
				<path class="st1" d="M102.78,25.89l-0.57,7.58c0,0,8.93,7.76,14.31,19.14c4.44,9.4,6,23.97,6,23.97s4.42,40.84-32.27,41.08v35.2
					c1.69-1.68,9.71-9.56,16.8-14.07c12.82-8.15,17.13-35.29,17.13-49.48V51.46C124.18,38.11,114.79,27.13,102.78,25.89z"/>
				<path class="st1" d="M77.73,25.89l0.57,7.58c0,0-8.93,7.76-14.31,19.14c-4.44,9.4-6,23.97-6,23.97s-4.42,40.84,32.27,41.08v35.2
					c-1.69-1.68-9.82-9.37-16.8-14.07c-14-9.43-17.13-35.29-17.13-49.48V51.46C56.33,38.11,65.72,27.13,77.73,25.89z"/>
				<ellipse class="st1" cx="89.68" cy="119.51" rx="4.69" ry="8.63"/>
				<path class="st4" d="M97.14,104.85c0,1.81-3.08,3.27-6.88,3.27c-3.8,0-6.88-1.46-6.88-3.27s3.08-3.27,6.88-3.27
					C94.06,101.58,97.14,103.04,97.14,104.85z"/>
				<g>
					<path class="st1" d="M90.51,136.59c-8.99,0-16.3-8.51-16.3-18.98c0-10.46,7.31-18.98,16.3-18.98s16.3,8.51,16.3,18.98
						C106.81,128.08,99.5,136.59,90.51,136.59z M90.51,103.64c-6.23,0-11.3,6.27-11.3,13.98c0,7.71,5.07,13.98,11.3,13.98
						c6.23,0,11.3-6.27,11.3-13.98C101.81,109.9,96.74,103.64,90.51,103.64z"/>
				</g>
			</g>
			<g>
				<g>
					<path class="st1" d="M115.39,82.77c0,4.15-6.45,7.51-10.45,7.51c-4,0-9.69-7.51-9.69-7.51s7.23-5.68,9.69-7.51
						C108.37,72.71,115.39,69.17,115.39,82.77z"/>
					<path class="st5" d="M102.48,84.58c0.83,1.35,2.32,2.26,4.02,2.26c1.71,0,3.19-0.91,4.02-2.26H102.48z"/>
				</g>
				<g>
					<path class="st1" d="M64.85,82.77c0,4.15,6.45,7.51,10.45,7.51c4,0,9.69-7.51,9.69-7.51s-7.23-5.68-9.69-7.51
						C71.87,72.71,64.85,69.17,64.85,82.77z"/>
					<path class="st5" d="M77.76,84.58c-0.83,1.35-2.32,2.26-4.02,2.26c-1.71,0-3.19-0.91-4.02-2.26H77.76z"/>
				</g>
			</g>
			<rect x="88.16" y="150.54" class="st6" width="4.67" height="2.15"/>
			<rect x="88.16" y="163.39" class="st6" width="4.67" height="2.2"/>
		</g>
		<path class="st6" d="M144.29,144.26l-33.77,25.5l25.27-31.61C138.78,140.02,141.63,142.06,144.29,144.26z"/>
		<path class="st6" d="M153.76,153.62l-22.69,14.79l15.42-22.27C149.12,148.47,151.54,150.97,153.76,153.62z"/>
		<path class="st6" d="M159.06,160.82l-11.29,6.82l8.29-11.13C157.12,157.91,158.13,159.35,159.06,160.82z"/>
		<path class="st6" d="M23.9,156.13l8.58,11.51l-11.69-7.07C21.75,159.05,22.79,157.57,23.9,156.13z"/>
		<path class="st6" d="M33.53,145.83l15.63,22.58l-23.05-15.03C28.37,150.71,30.86,148.19,33.53,145.83z"/>
		<path class="st6" d="M69.71,169.76l-34.06-25.73c2.7-2.21,5.58-4.26,8.62-6.11L69.71,169.76z"/>
	</g>
</g>
</svg>
