<?xml version="1.0" encoding="utf-8"?>
<!-- Generator: Adobe Illustrator 24.0.0, SVG Export Plug-In . SVG Version: 6.00 Build 0)  -->
<svg version="1.1" id="Layer_1" xmlns="http://www.w3.org/2000/svg" xmlns:xlink="http://www.w3.org/1999/xlink" x="0px" y="0px"
	 width="180px" height="180px" viewBox="0 0 180 180" style="enable-background:new 0 0 180 180;" xml:space="preserve">
<style type="text/css">
	.st0{fill:#A11D25;}
	.st1{fill:#BE916C;}
	.st2{fill:#D6AC8A;}
	.st3{fill:#AB6D44;}
	.st4{fill:#628FBE;}
	.st5{fill:#100C17;}
	.st6{fill:#FFFFFF;}
	.st7{fill:#E4C81F;}
	.st8{fill:#958230;}
	.st9{fill:#B19E32;}
	.st10{fill:#D0BF2B;}
	.st11{fill:#5E0D19;}
	.st12{fill:#771824;}
</style>
<g>
	<path class="st0" d="M139.23,180.22H40.77v-23.73c0-10.36,8.4-18.76,18.76-18.76h60.93c10.36,0,18.76,8.4,18.76,18.76V180.22z"/>
	<rect x="72.32" y="113.59" class="st1" width="34.97" height="28.88"/>
	<g>
		<path class="st0" d="M89.53,156.92H72.32v-22.2h11.7c3.04,0,5.51,2.47,5.51,5.51V156.92z"/>
		<path class="st0" d="M90.21,156.92h17.21v-22.2h-11.7c-3.04,0-5.51,2.47-5.51,5.51V156.92z"/>
	</g>
	<g>
		<path class="st2" d="M123.03,102.66h-1.96V83.17h1.96c2.8,0,5.08,2.27,5.08,5.08v9.33C128.11,100.39,125.84,102.66,123.03,102.66z
			"/>
		<path class="st2" d="M56.67,102.66h1.96V83.17h-1.96c-2.8,0-5.08,2.27-5.08,5.08v9.33C51.6,100.39,53.87,102.66,56.67,102.66z"/>
		<path class="st2" d="M124.46,77.93v25.9c0,9.13-5.12,17.31-12.89,20.56l-17.87,7.49c-3.23,1.35-6.78,1.29-9.96-0.17l-15.46-7.08
			c-7.45-3.42-12.32-11.42-12.32-20.29V73.96c0-1.6,0.11-3.18,0.32-4.72c11.41-10.54,29.71-14.8,44.43-10.08
			C110.54,62.31,119.01,69.2,124.46,77.93z"/>
		<g>
			<path class="st3" d="M96.88,114.96c-1.73-0.78-4.16-1.22-6.67-1.22c-2.51,0-4.94,0.45-6.67,1.22l-1.23-2.74
				c2.14-0.96,4.94-1.49,7.9-1.49c2.96,0,5.76,0.53,7.9,1.49L96.88,114.96z"/>
		</g>
		<g>
			<g>
				<path class="st4" d="M108.37,95.93c-0.34,1.72-2.4,2.75-4.6,2.32c-2.2-0.43-3.71-2.18-3.37-3.89c0.34-1.72,2.4-2.75,4.6-2.32
					C107.2,92.48,108.71,94.22,108.37,95.93z"/>
				<path class="st4" d="M72.12,96.01c0.37,1.71,2.45,2.71,4.64,2.24c2.19-0.47,3.67-2.24,3.3-3.95c-0.37-1.71-2.45-2.71-4.64-2.24
					C73.22,92.53,71.75,94.3,72.12,96.01z"/>
				<g>
					<path class="st5" d="M97.84,93.17l-1.67-2.49c5.84-3.92,13.17-5.41,20.08-4.1l-0.56,2.95
						C109.54,88.35,103.04,89.68,97.84,93.17z"/>
				</g>
				<g>
					<path class="st5" d="M82.58,93.17c-5.19-3.49-11.7-4.82-17.84-3.64l-0.56-2.95c6.92-1.32,14.23,0.17,20.08,4.1L82.58,93.17z"/>
				</g>
			</g>
			<circle class="st6" cx="106.14" cy="94.57" r="0.98"/>
			<circle class="st6" cx="77.54" cy="94.57" r="0.98"/>
		</g>
		<g>
			<rect x="55.97" y="57.29" class="st7" width="4.77" height="41.21"/>
			<path class="st7" d="M124.46,73.96V98.5h-4.78V75.17c0-2.44-1.02-4.78-2.81-6.44c-0.02-0.02-0.04-0.04-0.06-0.06
				c-1.88-1.74-4.43-2.51-6.98-2.25c-7.66,0.77-15.51-0.3-22.66-3.16c2.5,3.42,5.94,6.13,9.84,7.76c-1.86-0.79-5.22-0.31-7.3-0.61
				c-2.52-0.37-5-0.91-7.45-1.6c-4.26-1.22-10.67-2.97-13.76-6.18c4.13-2.39,9.45-4.1,14.74-5.15c-9.97,1.02-19.82,5.15-26.95,11.74
				c2.08-14.98,13.84-26.46,28.07-26.46h11.71c10.09,0,18.97,5.79,23.99,14.51C122.84,62.11,124.46,67.83,124.46,73.96z"/>
		</g>
		<g>
			<path class="st8" d="M88.79,50.5c0.29,0.27,0.58,0.54,0.73,0.68C89.4,51.07,89.17,50.85,88.79,50.5
				c-0.53-0.49-0.76-0.71-0.83-0.77C88.07,49.83,88.43,50.16,88.79,50.5c-8.25-7.66,9.61-26.3-5.14-29.29
				c8.83,5.01-16.66,19.54-13.91-2.93c-2.41,5.57-2.46,11.19-0.92,16.27c3.19,1.73,5.9,4.51,7.67,7.46c1.2,2,1.67,4.21,2.02,6.45
				c6.21,4.89,14.17,7.09,21.21,4.56C95.75,54.07,92.11,53.24,88.79,50.5z"/>
			<path class="st8" d="M113.05,36.86c-1.28-2.28-7.36-13.84,0.55-15.08c-17.74-1.42-4.86,16.56-9.58,20.62
				c-5.72,4.93-13.65-1.15-7.31-5.38c-11.42-1.35-4,13.29,2.77,15.2C109.61,55.1,118.53,46.62,113.05,36.86z"/>
			<path class="st8" d="M51.24,55.47c-0.19-2.61-1.51-15.61-8.79-12.26c14.01-10.98,13.2,11.12,19.37,11.9
				c7.49,0.95,10.75-8.49,3.12-8.52c8.77-7.44,10.67,8.87,6.09,14.2C64.18,68.78,52.06,66.65,51.24,55.47z"/>
			<path class="st8" d="M76.84,49.02c-0.26-3.8-1.99-7.46-5.14-10.17c-1.86-1.6-4.19-2.82-6.75-3.02c-2.57-0.2-5.37,0.78-6.9,2.79
				c-0.01-2.58,2.09-4.99,4.68-6c2.59-1.01,5.54-0.77,8.07,0.15c2.53,0.92,4.72,2.47,6.78,4.1c2.68,2.11,5.34,4.54,6.2,7.75
				c0.39,1.44,0.41,3.01,1.13,4.32c1.62,2.93,5.96,3.41,8.4,5.77c-2.87,0.91-5.74,1.83-8.61,2.74c-1.38,0.44-2.75,0.88-4.13,1.31
				c-1.4,0.44-2.58,1.12-4.03,1.48c-0.77,0.19-3.9,0.28-4.36,0.74C75.61,57.57,77.12,53.21,76.84,49.02z"/>
			<path class="st9" d="M114.76,53.59L59.57,70.21c-1.83,0.55-3.75-0.48-4.3-2.31v0c-0.55-1.83,0.48-3.75,2.31-4.3l55.19-16.62
				c1.83-0.55,3.75,0.48,4.3,2.31l0,0C117.62,51.11,116.58,53.04,114.76,53.59z"/>
			<path class="st10" d="M82,36.23c0.6,2-0.37,4.06-2.16,4.6c-1.8,0.54-3.74-0.64-4.35-2.64c-0.6-2,0.37-4.06,2.17-4.6
				C79.46,33.05,81.4,34.24,82,36.23z"/>
		</g>
	</g>
	<path class="st11" d="M86.42,180.22h19.94c8.26-10.88,12.91-23.98,11.41-38.85C114.79,160.58,102.31,172.66,86.42,180.22z"/>
	<path class="st12" d="M117.77,141.38c-0.01-0.06-0.01-0.12-0.01-0.18c-0.76-0.09-1.72-0.23-2.38-0.68
		c-10.41,19.04-50.92,39.71-50.92,39.71h21.96C102.31,172.66,114.79,160.58,117.77,141.38z"/>
	<path class="st12" d="M117.75,141.2c0.01,0.06,0.01,0.12,0.01,0.18c0.01-0.06,0.02-0.12,0.03-0.17
		C117.78,141.2,117.77,141.2,117.75,141.2z"/>
	<path class="st12" d="M119.82,141.34c-0.57-0.01-1.15-0.05-1.71-0.1c-0.1-0.01-0.21-0.02-0.32-0.04c-0.01,0.06-0.02,0.12-0.03,0.17
		c1.5,14.87-3.15,27.97-11.41,38.85h16.5C127.27,155.88,121.89,144.61,119.82,141.34z"/>
	<path class="st8" d="M124.59,138.69c0,2.66-3.12,4.82-6.98,4.82c-3.85,0-6.98-2.16-6.98-4.82c0-2.66,3.12-4.82,6.98-4.82
		C121.47,133.87,124.59,136.03,124.59,138.69z"/>
</g>
</svg>
