<?xml version="1.0" encoding="utf-8"?>
<!-- Generator: Adobe Illustrator 24.0.0, SVG Export Plug-In . SVG Version: 6.00 Build 0)  -->
<svg version="1.1" id="Layer_1" xmlns="http://www.w3.org/2000/svg" xmlns:xlink="http://www.w3.org/1999/xlink" x="0px" y="0px"
	 width="180px" height="180px" viewBox="0 0 180 180" style="enable-background:new 0 0 180 180;" xml:space="preserve">
<style type="text/css">
	.st0{fill:#D2D0C0;}
	.st1{fill:#D1A682;}
	.st2{fill:#DCB58F;}
	.st3{fill:#E5E4D3;}
	.st4{fill:#DE315B;}
	.st5{fill:#F05171;}
	.st6{fill:#347AB3;}
	.st7{fill:#3D3D3D;}
	.st8{fill:#FFFFFF;}
	.st9{fill:#628FBE;}
</style>
<g>
	<g>
		<path class="st0" d="M83.53,110.28L50.52,63.6c-0.29,5.48-5.17,26.3-7.16,30.55c-2.92,6.25-8.81,12.88-8.1,20.03
			c0.47,4.68,2.64,8.98,4.52,13.28c1.88,4.31,3.52,8.97,2.82,13.61c-1.15,7.65-8.06,12.85-12.82,18.95
			c-4.28,5.48-6.99,12.59-6.06,19.4h31.97c2.39-4.21,5.36-9.67,9.85-11.77c4.23-1.99,8.08-1.72,12.23-4.75
			c7.38-5.38,12.43-13.31,12.76-22.58C90.94,129.97,87.21,119.97,83.53,110.28z"/>
		<path class="st0" d="M96.47,110.28l32.65-46.68c0.29,5.48,5.52,26.3,7.51,30.55c2.92,6.25,8.81,12.88,8.1,20.03
			c-0.47,4.68-2.64,8.98-4.52,13.28c-1.88,4.31-3.52,8.97-2.82,13.61c1.15,7.65,8.06,12.85,12.82,18.95
			c4.28,5.48,6.99,12.59,6.06,19.4h-31.97c-2.39-4.21-5.36-9.67-9.85-11.77c-4.23-1.99-8.08-1.72-12.23-4.75
			c-7.38-5.38-12.43-13.31-12.76-22.58C89.06,129.97,92.79,119.97,96.47,110.28z"/>
		<rect x="75.93" y="107.77" class="st1" width="27.78" height="32.99"/>
		<path class="st2" d="M130.16,77.11c0,29.89-21.77,43.91-33.32,49.25c-4.43,2.05-9.55,1.99-13.94-0.14
			c-11.53-5.58-33.42-20.01-33.42-49.11c0-28.7,18.06-44.38,40.34-44.38C112.1,32.74,130.16,48.41,130.16,77.11z"/>
		<g>
			<path class="st3" d="M47.01,81.1c15.1-7.02,21.02-19.48,42.4-29.88V32.63C60.84,24.91,40.94,52.59,47.01,81.1z"/>
		</g>
		<g>
			<path class="st3" d="M130.59,82.08c-13.66-9.33-19.38-20.46-40.76-30.86V32.63C118.4,24.91,136.65,53.56,130.59,82.08z"/>
		</g>
		<g>
			<path class="st4" d="M98.07,109.73h-16.5c1.25-2.83,3.47-4.74,5.46-4.74c1.19,0,2.11,0.79,2.79,1.96
				c0.67-1.17,1.59-1.96,2.79-1.96C94.59,104.99,96.81,106.91,98.07,109.73z"/>
			<path class="st5" d="M81.57,109.7c1.97,2.14,4.93,3.51,8.25,3.51s6.28-1.37,8.25-3.51H81.57z"/>
		</g>
		<g>
			<g>
				<g>
					<ellipse class="st6" cx="106.16" cy="89.41" rx="3.34" ry="3.83"/>
					<path class="st7" d="M106.16,85.58c-1.12,0-2.1,0.64-2.71,1.61h7.13C109.49,86.32,107.28,85.58,106.16,85.58z"/>
					<path class="st8" d="M105.28,89.19c0,0.78-0.48,1.41-1.08,1.41c-0.6,0-1.08-0.63-1.08-1.41c0-0.78,0.48-1.41,1.08-1.41
						C104.8,87.78,105.28,88.41,105.28,89.19z"/>
				</g>
				<g>
					<ellipse class="st6" cx="75.59" cy="89.41" rx="3.34" ry="3.83"/>
					<path class="st7" d="M75.59,85.58c1.12,0,2.1,0.64,2.71,1.61h-7.13C72.25,86.32,74.47,85.58,75.59,85.58z"/>
					<path class="st8" d="M72.92,89.19c0,0.78,0.48,1.41,1.08,1.41c0.6,0,1.08-0.63,1.08-1.41c0-0.78-0.48-1.41-1.08-1.41
						C73.4,87.78,72.92,88.41,72.92,89.19z"/>
				</g>
				<path class="st7" d="M79.73,83.22c0,0-0.27-0.16-0.75-0.43c-0.24-0.14-0.56-0.33-0.77-0.41c-0.26-0.1-0.5-0.29-0.88-0.39
					c-0.36-0.12-0.76-0.28-1.21-0.34c-0.44-0.11-0.92-0.15-1.43-0.2c-0.51-0.01-1.05-0.03-1.61,0.04c-0.56,0.04-1.14,0.14-1.72,0.25
					c-2.33,0.5-4.71,1.43-6.51,2.04c-1.8,0.63-3.03,0.94-3.03,0.94s1.11-0.6,2.69-1.64c0.79-0.52,1.72-1.13,2.71-1.78
					c0.51-0.32,1.03-0.66,1.59-0.98c0.55-0.33,1.14-0.63,1.73-0.94c0.61-0.28,1.23-0.57,1.88-0.78c0.64-0.24,1.31-0.4,1.97-0.55
					c0.67-0.12,1.32-0.23,1.96-0.23c0.64-0.06,1.24,0,1.8,0.04c0.55,0.01,1.12,0.18,1.6,0.26c0.53,0.1,0.81,0.19,1.08,0.27
					c0.53,0.15,0.84,0.24,0.84,0.24l0.01,0c1.34,0.38,2.12,1.77,1.74,3.11c-0.38,1.34-1.77,2.12-3.11,1.74
					C80.1,83.4,79.9,83.32,79.73,83.22z"/>
			</g>
			<path class="st7" d="M98.12,78.19c0,0,0.31-0.07,0.85-0.2c0.27-0.06,0.56-0.14,1.09-0.22c0.48-0.06,1.05-0.2,1.61-0.19
				c0.56-0.01,1.17-0.05,1.8,0.04c0.64,0.04,1.29,0.17,1.95,0.32c0.65,0.18,1.32,0.36,1.94,0.64c0.64,0.25,1.25,0.56,1.84,0.87
				c0.58,0.33,1.16,0.66,1.69,1.01c0.54,0.34,1.05,0.7,1.54,1.05c0.96,0.7,1.86,1.35,2.63,1.9c1.53,1.11,2.61,1.76,2.61,1.76
				s-1.21-0.36-2.99-1.07c-1.77-0.69-4.11-1.73-6.42-2.33c-0.58-0.14-1.15-0.26-1.71-0.33c-0.56-0.09-1.1-0.1-1.6-0.11
				c-0.51,0.02-0.99,0.04-1.43,0.13c-0.45,0.05-0.85,0.19-1.22,0.29c-0.39,0.08-0.63,0.26-0.9,0.35c-0.22,0.07-0.55,0.25-0.79,0.38
				c-0.49,0.25-0.77,0.4-0.77,0.4c-1.24,0.64-2.76,0.16-3.4-1.08c-0.64-1.24-0.16-2.76,1.08-3.4c0.19-0.1,0.38-0.17,0.57-0.21
				L98.12,78.19z"/>
		</g>
		<g>
			<path class="st2" d="M53.59,84.39c0,0-4.69-4.36-6.29-1.1c-1.6,3.26,3.9,14.02,6.77,16.05C56.94,101.36,53.59,84.39,53.59,84.39z
				"/>
		</g>
		<g>
			<path class="st3" d="M122.63,82.08c1.76,8.31-1.03,38.3,5.99,54.57c-4.29-17.87,3.52-44.84,2.14-53.51
				c-1.49-9.4-3.2-16.73-14.26-22.87l-10.28,1.12C113.53,66.59,120.72,73.06,122.63,82.08z"/>
		</g>
		<path class="st1" d="M135.29,179.59H44.35v-20.84c0-12.15,9.85-22,22-22h46.93c12.15,0,22,9.85,22,22V179.59z"/>
		<path class="st9" d="M75.93,136.75l-19.28,26.16v16.68H86.7C86.7,179.59,71.53,169.67,75.93,136.75z"/>
		<path class="st9" d="M103.71,136.75c4.4,32.92-10.78,42.84-10.78,42.84h29.69v-17.17L103.71,136.75z"/>
	</g>
	<rect x="75.93" y="133.94" class="st7" width="27.78" height="2.77"/>
</g>
</svg>
