<?xml version="1.0" encoding="utf-8"?>
<!-- Generator: Adobe Illustrator 24.0.0, SVG Export Plug-In . SVG Version: 6.00 Build 0)  -->
<svg version="1.1" id="Layer_1" xmlns="http://www.w3.org/2000/svg" xmlns:xlink="http://www.w3.org/1999/xlink" x="0px" y="0px"
	 width="180px" height="180px" viewBox="0 0 180 180" style="enable-background:new 0 0 180 180;" xml:space="preserve">
<style type="text/css">
	.st0{fill:#9E5B2D;}
	.st1{fill:#7C441D;}
	.st2{fill:#010101;}
	.st3{fill:#683615;}
	.st4{fill:#8A4C21;}
	.st5{fill:#767371;}
	.st6{fill:#454240;}
</style>
<g>
	<path class="st0" d="M146.35,180.27H33.65v-35.73c0-7.69,6.23-13.92,13.92-13.92h84.85c7.69,0,13.92,6.23,13.92,13.92V180.27z"/>
	<rect x="68.04" y="90.91" class="st1" width="43.91" height="52.82"/>
	<g>
		<path class="st0" d="M119.04,81.44L119.04,81.44c-2.68-0.39-4.55-2.91-4.15-5.59l1.77-12.01c0.39-2.68,2.91-4.55,5.59-4.15l0,0
			c2.68,0.39,4.55,2.91,4.15,5.59l-1.77,12.01C124.23,79.96,121.72,81.83,119.04,81.44z"/>
		<path class="st0" d="M59.88,81.51L59.88,81.51c-2.7,0.25-5.11-1.76-5.35-4.45l-1.11-12.09c-0.25-2.7,1.76-5.11,4.45-5.35l0,0
			c2.7-0.25,5.11,1.76,5.35,4.45l1.11,12.09C64.59,78.85,62.58,81.26,59.88,81.51z"/>
	</g>
	<path class="st0" d="M122.92,54.72v33.7c0,2.26-0.93,4.42-2.57,5.96l-13.97,12.18l-7.08,6.17c-1.99,1.86-4.39,3-6.88,3.43
		c-1.5,0.26-3.03,0.26-4.53,0c-2.49-0.43-4.89-1.57-6.88-3.43l-6.93-6.04l-14.12-12.3c-1.64-1.53-2.57-3.69-2.57-5.96v-33.7
		c0-5.84,1.26-11.52,3.6-16.67c2.9-6.36,7.44-11.05,13.28-15.14c9.57-6.7,22.2-6.7,31.77,0c5.28,3.7,9.5,7.73,12.4,13.34
		c0.31,0.59,0.59,1.19,0.87,1.8C121.66,43.2,122.92,48.87,122.92,54.72z"/>
	<g>
		<path class="st2" d="M119.71,34.83c0.02,0.05,0.04,0.09,0.06,0.14C119.75,34.92,119.73,34.88,119.71,34.83L119.71,34.83z"/>
	</g>
	<g>
		<path class="st3" d="M98.72,93.83H81.59c1.3-3.48,3.6-5.84,5.67-5.84c1.24,0,2.19,0.97,2.9,2.42c0.7-1.44,1.65-2.42,2.9-2.42
			C95.1,87.99,97.41,90.35,98.72,93.83z"/>
		<path class="st4" d="M81.59,93.79c2.04,3.04,5.12,4.98,8.56,4.98s6.52-1.94,8.56-4.98H81.59z"/>
	</g>
	<path class="st4" d="M92.55,109.49v6.65c-1.59,0.27-3.22,0.27-4.8,0v-6.65c0-1.32,1.08-2.4,2.4-2.4c0.66,0,1.26,0.27,1.7,0.7
		C92.28,108.22,92.55,108.82,92.55,109.49z"/>
	<g>
		<ellipse class="st4" cx="93.76" cy="78.84" rx="1.88" ry="2.19"/>
		<path class="st4" d="M88.42,78.84c0,1.21-0.84,2.19-1.88,2.19c-1.04,0-1.88-0.98-1.88-2.19c0-1.21,0.84-2.19,1.88-2.19
			C87.58,76.65,88.42,77.63,88.42,78.84z"/>
	</g>
	<g>
		<g>
			<polygon class="st2" points="100.15,67.93 102.79,64.7 109.36,68.21 			"/>
			<polygon class="st2" points="94.53,60.78 96.64,65.7 107.27,62.15 115.79,67.06 107.27,58.32 			"/>
		</g>
		<g>
			<polygon class="st2" points="80.16,67.93 77.52,64.7 70.95,68.21 			"/>
			<polygon class="st2" points="85.77,60.78 83.66,65.7 73.04,62.15 64.52,67.06 73.04,58.32 			"/>
		</g>
	</g>
	<path class="st4" d="M122.92,68.21v20.2c0,2.26-0.93,4.42-2.57,5.96l-13.97,12.18V91.07c0-3.36,1.28-6.6,3.58-9.05L122.92,68.21z"
		/>
	<path class="st4" d="M74.07,91.07v15.61l-14.12-12.3c-1.64-1.53-2.57-3.69-2.57-5.96V68.28l0.14-0.06l12.96,13.8
		C72.79,84.47,74.07,87.7,74.07,91.07z"/>
	<path class="st2" d="M122.92,54.72v21.57l-5.53-12.92l0.73-13.17c0.24-4.4-3.19-8.1-7.52-8.1H69.83c-4.37,0-7.82,3.77-7.51,8.21
		l0.8,11.62l-5.73,13.92V55.16c0-4.51,0.75-8.91,2.17-13.06h-0.15c1.32-4.02,3.28-6.93,5.78-10.32c2.5-3.4,5.55-6.4,9.08-8.87
		c9.57-6.7,22.2-6.7,31.77,0c5.84,4.09,10.38,8.78,13.27,15.14c0.02,0.04,0.04,0.09,0.06,0.13c0.03,0.06,0.05,0.11,0.08,0.17
		c0.02,0.04,0.04,0.09,0.06,0.14c0.09,0.22,0.19,0.43,0.28,0.64c0.2,0.49,0.4,0.98,0.58,1.47c0.09,0.25,0.18,0.5,0.27,0.75
		c0.09,0.25,0.17,0.5,0.25,0.75h-0.01C122.21,46.11,122.92,50.37,122.92,54.72z"/>
	<polygon class="st5" points="134.99,180.27 44.98,180.27 20.82,130.61 159.18,130.61 	"/>
	<g>
		<path class="st6" d="M111.96,132.79c-14.38,10.06-29.54,10.05-43.91,0c0-4.38,0-6.56,0-10.94c14.64,0,29.27,0,43.91,0
			C111.96,126.23,111.96,128.42,111.96,132.79z"/>
	</g>
	<g>
		<polygon class="st6" points="65.96,130.49 63.57,130.49 78.9,180.29 81.29,180.29 		"/>
	</g>
	<g>
		<polygon class="st6" points="113.28,130.49 97.58,180.29 99.98,180.29 115.68,130.49 		"/>
	</g>
</g>
</svg>
