<?xml version="1.0" encoding="utf-8"?>
<!-- Generator: Adobe Illustrator 24.0.0, SVG Export Plug-In . SVG Version: 6.00 Build 0)  -->
<svg version="1.1" id="Layer_1" xmlns="http://www.w3.org/2000/svg" xmlns:xlink="http://www.w3.org/1999/xlink" x="0px" y="0px"
	 width="180px" height="180px" viewBox="0 0 180 180" style="enable-background:new 0 0 180 180;" xml:space="preserve">
<style type="text/css">
	.st0{fill:#5B0F1A;}
	.st1{fill:#A11D25;}
	.st2{fill:#D4A585;}
	.st3{fill:#231F20;}
	.st4{fill:#D31E46;}
	.st5{fill:#E2B99A;}
	.st6{fill:#105C8F;}
	.st7{fill:#AC1F23;}
	.st8{fill:#CC2E2E;}
</style>
<g>
	<path class="st0" d="M152.54,179.55H27.46L43.74,51.83c3.24-23.43,23.28-40.89,46.93-40.89h0.27c23.9,0,44.06,17.8,47.02,41.52
		L152.54,179.55z"/>
	<g>
		<g>
			<path class="st1" d="M137.38,155v24.55H42.46V155c0-4.96,1.56-9.56,4.22-13.33c4.19-5.96,11.13-9.85,18.96-9.85h48.55
				c7.83,0,14.77,3.89,18.96,9.85C135.82,145.44,137.38,150.04,137.38,155z"/>
			<path class="st2" d="M133.15,141.67c-8.17,17.3-24.47,29.1-43.24,29.1s-35.06-11.8-43.24-29.1c4.19-5.96,11.13-9.85,18.96-9.85
				h48.55C122.03,131.82,128.97,135.72,133.15,141.67z"/>
		</g>
		<rect x="75" y="86.22" class="st2" width="29.83" height="51.78"/>
		<rect x="75" y="121.16" class="st3" width="29.83" height="8.71"/>
		<g>
			<ellipse class="st3" cx="89.92" cy="125.76" rx="7.1" ry="9.61"/>
			<ellipse class="st4" cx="89.92" cy="125.58" rx="5.28" ry="6.24"/>
		</g>
		<rect x="103.55" y="55.53" class="st1" width="17.05" height="124.03"/>
		<rect x="58.97" y="55.53" class="st1" width="17.05" height="124.03"/>
		<path class="st5" d="M120.6,49.08V87.9c0,5.18-2.6,10.01-6.93,12.85l-7.55,4.96l-7.76,5.1c-5.12,3.37-11.75,3.37-16.88,0
			l-7.69-5.05l-7.63-5.01c-4.33-2.84-6.93-7.67-6.93-12.85V49.08c0-17.46,12.43-31.62,27.78-31.62h5.81
			C108.17,17.46,120.6,31.62,120.6,49.08z"/>
		<path class="st1" d="M92.83,17.46h-2.09v19.91c16.84,0.97,25.47,12.72,29.86,22.53V49.08C120.6,31.62,108.17,17.46,92.83,17.46z"
			/>
		<path class="st1" d="M87.01,17.46c-15.34,0-27.77,14.15-27.77,31.62V59.9C63.9,48.88,72.2,37.94,89.2,37.36v-19.9H87.01z"/>
		<path class="st0" d="M97.03,63.62c0,0,0.3-0.24,0.83-0.66c0.55-0.42,1.33-1.03,2.36-1.66c1.03-0.63,2.34-1.24,3.8-1.62
			c0.74-0.19,1.46-0.33,2.27-0.42l0.56-0.06l0.63-0.01c0.42-0.01,0.81,0.05,1.21,0.09c0.79,0.14,1.57,0.33,2.29,0.65
			c0.37,0.14,0.7,0.34,1.04,0.51c0.32,0.21,0.65,0.39,0.93,0.62c0.59,0.45,1.12,0.92,1.54,1.43c0.23,0.25,0.43,0.5,0.6,0.76
			c0.19,0.25,0.36,0.5,0.49,0.76c0.31,0.49,0.51,0.98,0.71,1.4c0.17,0.44,0.3,0.82,0.4,1.14c0.17,0.64,0.26,1.01,0.26,1.01
			s-0.12-0.36-0.34-0.98c-0.13-0.3-0.29-0.67-0.49-1.08c-0.23-0.4-0.47-0.86-0.81-1.31c-0.15-0.24-0.34-0.46-0.54-0.69
			c-0.19-0.24-0.4-0.46-0.64-0.68c-0.45-0.45-0.99-0.86-1.56-1.23c-0.28-0.19-0.61-0.33-0.91-0.5c-0.33-0.13-0.65-0.29-0.99-0.39
			c-0.67-0.24-1.39-0.35-2.1-0.41c-0.35,0-0.72-0.03-1.06,0.01l-0.5,0.05l-0.55,0.11c-0.66,0.14-1.37,0.39-1.99,0.63
			c-1.25,0.51-2.3,1.18-3.13,1.85c-0.83,0.67-1.48,1.32-1.93,1.77c-0.45,0.47-0.71,0.74-0.71,0.74l-0.01,0.01
			c-0.47,0.49-1.26,0.51-1.75,0.03c-0.49-0.47-0.51-1.26-0.03-1.75C96.95,63.69,96.99,63.65,97.03,63.62z"/>
		<g>
			<path class="st6" d="M103.59,66.77c-0.02,0.15-0.05,0.3-0.05,0.45c0,1.59,1.29,2.87,2.87,2.87c1.57,0,2.83-1.25,2.87-2.81
				C107.39,65.86,105.49,66.18,103.59,66.77z"/>
			<g>
				<path class="st3" d="M111.82,69.91h-1.35c-0.09-0.44-0.23-0.86-0.41-1.23c-0.61-1.22-1.75-2.01-3.62-2.01
					c-2.4,0-6.89,3.21-6.9,3.23h-0.26c0.02-0.05,4.25-5.38,7.92-5.38c2.15,0,3.46,1.32,4.16,3.33
					C111.56,68.48,111.73,69.17,111.82,69.91z"/>
			</g>
		</g>
		<g>
			<path class="st6" d="M77.14,66.77c0.02,0.15,0.05,0.3,0.05,0.45c0,1.59-1.29,2.87-2.87,2.87c-1.57,0-2.83-1.25-2.87-2.81
				C73.35,65.86,75.25,66.18,77.14,66.77z"/>
			<g>
				<path class="st3" d="M68.55,69.91h1.35c0.09-0.44,0.23-0.86,0.41-1.23c0.61-1.22,1.75-2.01,3.62-2.01c2.4,0,6.89,3.21,6.9,3.23
					h0.26c-0.02-0.05-4.25-5.38-7.92-5.38c-2.15,0-3.46,1.32-4.16,3.33C68.81,68.48,68.64,69.17,68.55,69.91z"/>
			</g>
		</g>
		<path class="st0" d="M81.59,65.11c0,0-0.28-0.26-0.77-0.72c-0.48-0.44-1.18-1.07-2.08-1.69c-0.9-0.63-2.02-1.25-3.35-1.72
			c-0.33-0.12-0.67-0.23-1.02-0.33l-0.52-0.14c-0.18-0.03-0.38-0.09-0.55-0.11c-0.69-0.12-1.44-0.16-2.18-0.1
			c-1.48,0.1-2.94,0.57-4.17,1.28c-1.23,0.7-2.22,1.64-2.92,2.55c-0.7,0.91-1.14,1.79-1.4,2.41c-0.26,0.63-0.37,1-0.37,1
			s0.08-0.38,0.29-1.03c0.21-0.65,0.58-1.57,1.23-2.56c0.64-0.99,1.59-2.05,2.84-2.9c1.24-0.86,2.77-1.5,4.39-1.74
			c0.81-0.13,1.63-0.15,2.46-0.08c0.77,0.08,1.58,0.2,2.31,0.36c1.49,0.32,2.87,0.85,3.96,1.42c1.11,0.57,1.94,1.15,2.53,1.56
			c0.57,0.41,0.89,0.64,0.89,0.64c0.55,0.4,0.68,1.17,0.28,1.73c-0.4,0.55-1.17,0.68-1.73,0.28c-0.04-0.03-0.08-0.06-0.12-0.1
			L81.59,65.11z"/>
		<g>
			<g>
				<path class="st7" d="M100.61,92.7H79.23c3.19-1.03,8.21-2.48,8.21-2.48s1.16,0.76,2.48,1.61c1.33-0.86,2.48-1.61,2.48-1.61
					S97.41,91.67,100.61,92.7z"/>
				<path class="st8" d="M100.39,92.7c-5.06,1-6.4,2.39-10.19,2.39c-0.09,0-0.18-0.01-0.27-0.01c-0.09,0-0.18,0.01-0.27,0.01
					c-3.79,0-5.14-1.39-10.19-2.39H100.39z"/>
			</g>
		</g>
		<path class="st2" d="M120.6,70.25V87.9c0,5.18-2.6,10.01-6.93,12.85l-7.55,4.96l-1.91-13.05c-0.32-2.21,0.95-4.4,3.08-5.08
			C117.19,84.42,120.6,70.25,120.6,70.25z"/>
		<path class="st2" d="M75.71,92.65l-1.92,13.1l-7.63-5.01c-4.33-2.84-6.93-7.67-6.93-12.85V70.34l0.07-0.1
			c0,0,3.41,14.18,13.32,17.33C74.76,88.25,76.04,90.44,75.71,92.65z"/>
	</g>
</g>
</svg>
