<?xml version="1.0" encoding="utf-8"?>
<!-- Generator: Adobe Illustrator 24.0.0, SVG Export Plug-In . SVG Version: 6.00 Build 0)  -->
<svg version="1.1" id="Layer_1" xmlns="http://www.w3.org/2000/svg" xmlns:xlink="http://www.w3.org/1999/xlink" x="0px" y="0px"
	 width="180px" height="180px" viewBox="0 0 180 180" style="enable-background:new 0 0 180 180;" xml:space="preserve">
<style type="text/css">
	.st0{fill:#E5958F;}
	.st1{fill:#DCB58F;}
	.st2{fill:#943138;}
	.st3{fill:#84411D;}
	.st4{fill:#AD5E27;}
	.st5{fill:#E9B7AF;}
	.st6{fill:#3B5333;}
	.st7{fill:#FFFFFF;}
	.st8{fill:#231F20;}
	.st9{fill:#D36C63;}
	.st10{fill:#DD847A;}
	.st11{fill:none;stroke:#84411D;stroke-linecap:round;stroke-miterlimit:10;}
</style>
<g>
	<rect x="80.8" y="123.23" class="st0" width="19.71" height="16.93"/>
	<rect x="80.8" y="140.16" class="st1" width="19.71" height="10.39"/>
	<rect x="80.8" y="135.76" class="st2" width="19.71" height="4.4"/>
	<rect x="80.8" y="140.16" class="st2" width="19.71" height="10.39"/>
	<rect x="80.8" y="135.76" class="st3" width="19.71" height="4.16"/>
	<g>
		<path class="st4" d="M133.85,155.01c-5.52-4.86-12.75-8.75-21.2-11.13l-13.16-3.72H81.55l-13.83,3.83
			c-8.56,2.36-15.89,6.26-21.47,11.15c-7.55,6.61-11.94,15.04-11.94,24v0.43h111.38v-0.62C145.69,170,141.34,161.6,133.85,155.01z"
			/>
		<path class="st3" d="M126.83,149.92c-4.18-2.51-8.94-4.57-14.18-6.05l-13.16-3.72H81.55l-13.83,3.83
			c-5.29,1.46-10.11,3.52-14.35,6.03c-2.61,1.53-4.99,3.25-7.12,5.12c9.67,13.11,25.66,21.68,43.76,21.68
			c18.14,0,34.18-8.62,43.84-21.8C131.75,153.17,129.4,151.46,126.83,149.92z"/>
		<path class="st4" d="M112.65,143.87l-13.16-3.72H81.55l-13.83,3.83c-5.29,1.46-10.11,3.52-14.35,6.03
			c9.57,8.6,22.47,13.89,36.68,13.89c14.26,0,27.21-5.33,36.79-13.98C122.65,147.41,117.89,145.36,112.65,143.87z"/>
	</g>
	<g>
		<path class="st5" d="M129.65,92.22c0,21.43-20.59,39.77-39.42,39.77c-18.64,0-39.42-18.34-39.42-39.77
			c0-21.43,17.65-38.81,39.42-38.81C112,53.41,129.65,70.79,129.65,92.22z"/>
		<g>
			<path class="st6" d="M112.08,101.58l-7.81-3.27c-1.14,0.9-1.88,2.28-1.88,3.85c0,2.74,2.22,4.95,4.95,4.95
				c2.74,0,4.95-2.22,4.95-4.95c0-0.16-0.03-0.3-0.05-0.46L112.08,101.58z"/>
			<circle class="st7" cx="110.43" cy="103.01" r="1"/>
		</g>
		<path class="st8" d="M117.31,100.25c0,0-0.02-0.37-0.24-0.88c-0.23-0.52-0.66-1.22-1.43-1.74c-0.37-0.26-0.84-0.49-1.28-0.59
			c-0.15-0.04-0.3-0.08-0.45-0.12l-0.39-0.08c-0.27-0.04-0.56-0.09-0.86-0.11c-1.18-0.08-2.44,0.03-3.67,0.33
			c-0.62,0.15-1.22,0.37-1.79,0.63c-0.57,0.26-1.12,0.55-1.67,0.77c-1.1,0.44-2.18,0.74-3.15,1.02c-0.96,0.28-1.82,0.5-2.46,0.66
			c-0.63,0.16-1.05,0.24-1.05,0.24l-0.28-0.29c0,0,0.03-0.1,0.09-0.29c0.06-0.19,0.16-0.45,0.31-0.77c0.15-0.32,0.37-0.69,0.65-1.08
			c0.28-0.4,0.63-0.81,1.05-1.23c0.84-0.81,1.96-1.65,3.33-2.16c1.38-0.5,2.99-0.59,4.54-0.68c1.56-0.07,3.16,0.08,4.57,0.55
			c0.36,0.11,0.69,0.24,1.03,0.39c0.17,0.08,0.33,0.16,0.5,0.23c0.14,0.08,0.27,0.16,0.4,0.23c0.67,0.38,1.15,0.83,1.54,1.3
			c0.78,0.94,1.09,1.92,1.14,2.6c0.02,0.33,0.01,0.62-0.01,0.79c-0.02,0.17-0.04,0.25-0.04,0.25L117.31,100.25z"/>
		<g>
			<path class="st6" d="M76.41,98.29l-7.96,3.43c-0.01,0.15-0.04,0.29-0.04,0.44c0,2.74,2.22,4.95,4.95,4.95
				c2.74,0,4.95-2.22,4.95-4.95C78.32,100.58,77.56,99.19,76.41,98.29z"/>
			<circle class="st7" cx="76.22" cy="103.01" r="1"/>
		</g>
		<path class="st8" d="M63.01,100.25c0,0-0.01-0.09-0.04-0.25c-0.02-0.17-0.03-0.45-0.01-0.79c0.05-0.68,0.36-1.66,1.14-2.6
			c0.4-0.47,0.87-0.91,1.54-1.3c0.13-0.08,0.27-0.15,0.4-0.23c0.16-0.08,0.33-0.16,0.5-0.23c0.34-0.15,0.67-0.28,1.02-0.39
			c1.41-0.48,3-0.64,4.56-0.58c1.55,0.08,3.16,0.16,4.54,0.64c1.38,0.5,2.5,1.33,3.35,2.14c0.42,0.41,0.78,0.83,1.06,1.22
			c0.28,0.39,0.5,0.76,0.65,1.08c0.15,0.32,0.26,0.58,0.31,0.77c0.06,0.19,0.09,0.29,0.09,0.29l-0.28,0.29c0,0-0.41-0.08-1.04-0.24
			c-0.64-0.15-1.49-0.37-2.45-0.65c-0.96-0.28-2.05-0.57-3.15-1c-0.55-0.22-1.1-0.5-1.67-0.76c-0.57-0.26-1.18-0.47-1.8-0.62
			c-1.24-0.29-2.5-0.39-3.68-0.31c-0.29,0.02-0.59,0.06-0.86,0.11l-0.39,0.08c-0.15,0.04-0.3,0.08-0.45,0.12
			c-0.44,0.11-0.91,0.34-1.28,0.59c-0.76,0.53-1.2,1.23-1.43,1.74c-0.21,0.51-0.24,0.88-0.24,0.88L63.01,100.25z"/>
		<g>
			<path class="st9" d="M88.57,116.69c0,0-2.14,0.74-2.62,1.8h5.24C90.72,117.42,88.57,116.69,88.57,116.69z"/>
			<g>
				<path class="st9" d="M91.87,116.69c0,0-2.15,0.74-2.63,1.8h5.26C94.02,117.42,91.87,116.69,91.87,116.69z"/>
			</g>
		</g>
		<path class="st8" d="M136.6,96.5c-0.29-1.45-0.63-2.93-1.02-4.47c-0.01,5.38-0.46,11.81-2.02,16.82c-0.3-2.03-1.03-3.9-2.22-5.57
			c0.39,4.83-0.08,9.66-1.28,14.38c-0.11,0.22-0.2,0.44-0.3,0.66c-0.67-2.54-1.32-5.07-1.99-7.6c0.15,3.68-0.19,7.37-1.03,10.96
			c-15.5-26.18-51.52-62.71-51.52-62.71s-7.85-4.67,14.16-11.35c22-6.69,43.04,10.43,46.97,29.49
			C137.72,83.78,137.54,90.43,136.6,96.5z"/>
		<path class="st8" d="M81,56.21c-6.12,1.22-15.52,7.23-18.83,12.52c-8.98,14.34-7.77,35.28,3.99,48.69
			c-12.71-4.51-16.66-19.94-17.37-24.58c-4.61-30.05,9.07-36.02,15.3-40.18c5.61-3.75,12.51-5.26,19.26-5.21
			c6.75,0.05,13.41,1.58,19.88,3.5L81,56.21z"/>
		<path class="st10" d="M86.03,118.81c0.42,1.93,2.14,3.38,4.2,3.38c2.06,0,3.77-1.45,4.2-3.38H86.03z"/>
	</g>
	<g>
		<path class="st3" d="M97.27,158.53l-4.67-14.76l8.17,13.14c0.65,0.87,0.47,2.11-0.4,2.76c-0.87,0.65-2.11,0.47-2.76-0.4
			C97.44,159.04,97.33,158.78,97.27,158.53z"/>
		<path class="st3" d="M109.49,157.16l-12.93-13.4l15.18,10.27c0.95,0.5,1.31,1.68,0.8,2.63c-0.5,0.95-1.68,1.31-2.63,0.8
			C109.76,157.39,109.61,157.28,109.49,157.16z"/>
		<path class="st3" d="M118.86,153.8l-18.34-10.03l19.87,6.49c1.02,0.33,1.57,1.42,1.24,2.44c-0.33,1.02-1.42,1.57-2.44,1.24
			L118.86,153.8z"/>
	</g>
	<g>
		<path class="st3" d="M85.33,158.53L90,143.77l-8.17,13.14c-0.65,0.87-0.47,2.11,0.4,2.76c0.87,0.65,2.11,0.47,2.76-0.4
			C85.15,159.04,85.27,158.78,85.33,158.53z"/>
		<path class="st3" d="M73.11,157.16l12.93-13.4l-15.18,10.27c-0.95,0.5-1.31,1.68-0.8,2.63c0.5,0.95,1.68,1.31,2.63,0.8
			C72.84,157.39,72.99,157.28,73.11,157.16z"/>
		<path class="st3" d="M63.74,153.8l18.34-10.03l-19.87,6.49c-1.02,0.33-1.57,1.42-1.24,2.44c0.33,1.02,1.42,1.57,2.44,1.24
			L63.74,153.8z"/>
	</g>
	<g>
		<path class="st11" d="M111.13,148.36"/>
	</g>
</g>
</svg>
