<?xml version="1.0" encoding="utf-8"?>
<!-- Generator: Adobe Illustrator 24.0.0, SVG Export Plug-In . SVG Version: 6.00 Build 0)  -->
<svg version="1.1" id="Layer_1" xmlns="http://www.w3.org/2000/svg" xmlns:xlink="http://www.w3.org/1999/xlink" x="0px" y="0px"
	 width="180px" height="180px" viewBox="0 0 180 180" style="enable-background:new 0 0 180 180;" xml:space="preserve">
<style type="text/css">
	.st0{fill:#C85B2D;}
	.st1{fill:#61A9BE;}
	.st2{fill:#E5958F;}
	.st3{fill:#E9B7AF;}
	.st4{fill:#EAA9A3;}
	.st5{fill:#4E7F63;}
	.st6{fill:#85481F;}
	.st7{fill:#FFFFFF;}
	.st8{fill:#D36C63;}
	.st9{fill:#DD847A;}
</style>
<g>
	<rect x="65.96" y="100.29" class="st0" width="48.78" height="50.38"/>
	<path class="st1" d="M142.79,179.41H37.21v-20.03c0-14.08,11.42-25.5,25.5-25.5h54.58c14.08,0,25.5,11.42,25.5,25.5V179.41z"/>
	<polygon class="st2" points="107.26,140.48 90.95,179.41 74.63,140.48 74.63,105.08 107.26,105.08 	"/>
	<g>
		<path class="st0" d="M133.17,165.78l-2.85-5.67c-1.4-2.78-1.4-5.81,0-8.59l2.87-5.7c1.4-2.78,1.4-5.81,0-8.59l-2.86-5.7
			c-1.4-2.78-1.4-5.81,0-8.59l2.86-5.7c1.4-2.78,1.4-5.81,0-8.59l-2.86-5.7c-1.4-2.78-1.4-5.81,0-8.59l2.86-5.7
			c1.4-2.78,1.4-5.81,0-8.59l-2.89-5.75c-1.38-2.75-1.4-5.74-0.05-8.5l2.76-5.63H108.3l-2.85,5.57c-1.43,2.8-1.44,5.85-0.03,8.65
			l2.85,5.67c1.4,2.78,1.4,5.81,0,8.59l-2.86,5.7c-1.4,2.78-1.4,5.81,0,8.59l2.86,5.7c1.4,2.78,1.4,5.81,0,8.59l-2.86,5.7
			c-1.4,2.78-1.4,5.81,0,8.59l2.86,5.7c1.4,2.78,1.4,5.81,0,8.59l-2.86,5.7c-1.4,2.78-1.4,5.81,0,8.59l2.89,5.75
			c1.38,2.75,1.4,5.74,0.05,8.5l-2.47,5.04h24.73l2.54-4.98C134.57,171.63,134.58,168.58,133.17,165.78z"/>
	</g>
	<g>
		<path class="st0" d="M49.36,165.78l2.65-5.67c1.3-2.78,1.3-5.81,0-8.59l-2.67-5.7c-1.3-2.78-1.3-5.81,0-8.59l2.67-5.7
			c1.3-2.78,1.3-5.81,0-8.59l-2.67-5.7c-1.3-2.78-1.3-5.81,0-8.59l2.67-5.7c1.3-2.78,1.3-5.81,0-8.59l-2.67-5.7
			c-1.3-2.78-1.3-5.81,0-8.59l2.69-5.75c1.29-2.75,1.3-5.74,0.04-8.5l-2.57-5.63h23.02l2.65,5.57c1.33,2.8,1.34,5.85,0.03,8.65
			l-2.65,5.67c-1.3,2.78-1.3,5.81,0,8.59l2.67,5.7c1.3,2.78,1.3,5.81,0,8.59l-2.67,5.7c-1.3,2.78-1.3,5.81,0,8.59l2.67,5.7
			c1.3,2.78,1.3,5.81,0,8.59l-2.67,5.7c-1.3,2.78-1.3,5.81,0,8.59l2.67,5.7c1.3,2.78,1.3,5.81,0,8.59l-2.69,5.75
			c-1.29,2.75-1.3,5.74-0.04,8.5l2.3,5.04H51.76l-2.37-4.98C48.06,171.63,48.05,168.58,49.36,165.78z"/>
	</g>
	<path class="st0" d="M93.45,33.8c-0.21-0.61-0.45-1.18-0.72-1.75c-0.39-0.84-0.84-1.62-1.36-2.36c-0.37-0.54-0.78-1.07-1.22-1.56
		c-0.69-0.77-1.46-1.48-2.31-2.1c-9.43-6.94-25.02-1.76-34.82,11.57c-9.8,13.32-10.12,29.74-0.7,36.68
		c9.43,6.93,25.02,1.75,34.82-11.57c1.67-2.28,3.08-4.65,4.2-7.04c1.59-3.41,2.63-6.87,3.08-10.21
		C94.99,41.25,94.67,37.24,93.45,33.8z M92.73,46.52h-2.58V45.2c0.88,0,1.74,0.03,2.58,0.09V46.52z"/>
	<path class="st0" d="M129.06,37.03c-9.52-12.93-24.83-17.83-34.2-10.93c-0.77,0.58-1.49,1.2-2.13,1.9
		c-0.5,0.52-0.95,1.09-1.36,1.68c-0.46,0.63-0.87,1.3-1.22,2c-0.33,0.66-0.64,1.34-0.89,2.04c-1.28,3.42-1.63,7.39-1.09,11.55
		c0.45,3.41,1.51,6.94,3.16,10.39c1.04,2.17,2.31,4.29,3.82,6.34c9.52,12.93,24.83,17.83,34.2,10.93
		C138.71,66.05,138.58,49.98,129.06,37.03z M90.14,46.52V45.2c0.88,0,1.74,0.03,2.58,0.09v1.23H90.14z"/>
	<path class="st3" d="M123.08,80.41c0,1.98-0.09,3.89-0.29,5.73c-1.6,15.79-9.76,24.33-18.72,29.65c-4.5,2.68-9.2,5.07-13.38,5.07
		c-2.92,0-7.4-2.21-12.09-4.83c-8.31-4.67-17.33-11.84-19.7-27.44v-0.01c-0.39-2.55-0.6-5.27-0.6-8.17
		c0-22.91,10.04-41.49,32.39-41.49C114.35,38.92,123.08,57.5,123.08,80.41z"/>
	<path class="st4" d="M122.78,86.15c-1.6,15.79-9.76,24.33-18.72,29.65c-1.5-28.43,18.42-30.37,18.42-30.37L122.78,86.15z"/>
	<path class="st4" d="M78.59,116.04c-8.31-4.67-17.33-11.84-19.7-27.44v-0.01l1.31-3.16C60.2,85.42,80.22,87.39,78.59,116.04z"/>
	<path class="st0" d="M122.78,73.44c-3.61-14.7-13.43-26.16-28.38-27.99c-0.54-0.07-1.11-0.13-1.67-0.17
		c-0.85-0.06-1.71-0.09-2.58-0.09h-0.01c-0.66,0-1.32,0.03-1.97,0.08C73.88,46.5,61.8,60.74,58.63,73.44
		c-3.36-19.36,13.06-38.71,30.62-39.72c0.29-0.02,0.6-0.03,0.89-0.03c0.18-0.01,0.37-0.01,0.54-0.01c0.68,0,1.36,0.02,2.04,0.06
		c0.24,0.01,0.48,0.03,0.72,0.05C112.31,35.35,127.05,52.64,122.78,73.44z"/>
	<g>
		<g>
			<path class="st5" d="M108.76,85.43c0,1.65-1.34,2.99-2.99,2.99s-2.99-1.34-2.99-2.99c0-1.65,1.34-2.99,2.99-2.99
				S108.76,83.78,108.76,85.43z"/>
			<path class="st5" d="M78.18,85.43c0,1.65-1.34,2.99-2.99,2.99s-2.99-1.34-2.99-2.99c0-1.65,1.34-2.99,2.99-2.99
				S78.18,83.78,78.18,85.43z"/>
		</g>
		<path class="st6" d="M99.79,76.06c0,0,0.29-0.03,0.8-0.09c0.51-0.05,1.27-0.14,2.17-0.2c1.79-0.14,4.23-0.19,6.64,0.19
			c0.6,0.12,1.2,0.22,1.78,0.4c0.58,0.14,1.13,0.38,1.66,0.59c0.51,0.27,1.02,0.48,1.44,0.81c0.21,0.15,0.42,0.3,0.62,0.44
			c0.19,0.16,0.35,0.33,0.52,0.49c0.34,0.3,0.59,0.63,0.8,0.93c0.11,0.14,0.21,0.28,0.3,0.41c0.07,0.14,0.14,0.27,0.2,0.38
			c0.23,0.46,0.37,0.72,0.37,0.72s-0.17-0.24-0.47-0.65c-0.07-0.1-0.16-0.21-0.25-0.34c-0.11-0.11-0.23-0.22-0.35-0.34
			c-0.25-0.25-0.52-0.52-0.89-0.75c-0.18-0.12-0.35-0.26-0.54-0.37c-0.2-0.1-0.41-0.21-0.63-0.31c-0.42-0.23-0.93-0.35-1.41-0.52
			c-0.52-0.11-1.03-0.24-1.59-0.29c-0.54-0.08-1.11-0.08-1.66-0.1c-2.25,0.01-4.48,0.42-6.13,0.82c-0.83,0.2-1.51,0.38-2,0.51
			c-0.49,0.14-0.77,0.22-0.77,0.22c-0.8,0.22-1.63-0.24-1.85-1.04c-0.22-0.8,0.24-1.63,1.04-1.85
			C99.63,76.08,99.71,76.07,99.79,76.06z"/>
		<path class="st6" d="M81.31,79c0,0-0.28-0.08-0.77-0.22c-0.49-0.13-1.16-0.32-2-0.51c-1.66-0.4-3.89-0.81-6.13-0.82
			c-0.55,0.02-1.12,0.02-1.66,0.1c-0.55,0.04-1.07,0.18-1.59,0.29c-0.49,0.17-0.99,0.29-1.41,0.52c-0.22,0.11-0.43,0.21-0.63,0.31
			c-0.2,0.11-0.37,0.25-0.54,0.37c-0.37,0.22-0.64,0.5-0.89,0.75c-0.13,0.12-0.24,0.24-0.35,0.34c-0.09,0.12-0.17,0.23-0.25,0.34
			c-0.3,0.41-0.47,0.65-0.47,0.65s0.13-0.26,0.37-0.72c0.06-0.12,0.13-0.24,0.2-0.38c0.09-0.13,0.19-0.26,0.3-0.41
			c0.21-0.3,0.46-0.63,0.8-0.93c0.16-0.15,0.33-0.33,0.52-0.49c0.2-0.14,0.41-0.29,0.62-0.44c0.42-0.32,0.93-0.54,1.44-0.81
			c0.53-0.21,1.08-0.45,1.66-0.59c0.58-0.19,1.18-0.28,1.78-0.4c2.41-0.38,4.85-0.32,6.64-0.19c0.89,0.06,1.65,0.14,2.17,0.2
			c0.51,0.06,0.8,0.09,0.8,0.09c0.83,0.09,1.42,0.84,1.33,1.66c-0.09,0.83-0.84,1.42-1.66,1.33C81.47,79.04,81.38,79.02,81.31,79z"
			/>
		<circle class="st7" cx="107.48" cy="85.43" r="0.82"/>
		<circle class="st7" cx="76.3" cy="85.43" r="0.82"/>
	</g>
	<g>
		<path class="st8" d="M96.86,103.43H84.51c0.94-2.35,2.6-3.94,4.09-3.94c0.89,0,1.58,0.66,2.09,1.63c0.5-0.97,1.19-1.63,2.09-1.63
			C94.26,99.49,95.92,101.08,96.86,103.43z"/>
		<path class="st9" d="M84.51,103.4c1.47,2.05,3.69,3.36,6.18,3.36c2.49,0,4.7-1.31,6.18-3.36H84.51z"/>
	</g>
	<g>
		<path class="st3" d="M127.17,82.48c-0.47,4.62-2.69,8.18-4.95,7.95c-2.26-0.23-3.7-4.17-3.23-8.79c0.47-4.62,2.69-8.18,4.95-7.95
			C126.2,73.93,127.64,77.86,127.17,82.48z"/>
		<path class="st3" d="M54.2,82.48c0.47,4.62,2.69,8.18,4.95,7.95c2.26-0.23,3.7-4.17,3.23-8.79c-0.47-4.62-2.69-8.18-4.95-7.95
			C55.18,73.93,53.73,77.86,54.2,82.48z"/>
	</g>
</g>
</svg>
