<?xml version="1.0" encoding="utf-8"?>
<!-- Generator: Adobe Illustrator 24.0.0, SVG Export Plug-In . SVG Version: 6.00 Build 0)  -->
<svg version="1.1" id="Layer_1" xmlns="http://www.w3.org/2000/svg" xmlns:xlink="http://www.w3.org/1999/xlink" x="0px" y="0px"
	 width="180px" height="180px" viewBox="0 0 180 180" style="enable-background:new 0 0 180 180;" xml:space="preserve">
<style type="text/css">
	.st0{fill:#C4926D;}
	.st1{fill:#DCB58F;}
</style>
<g>
	<g>
		<g>
			<ellipse transform="matrix(0.9871 -0.1602 0.1602 0.9871 -7.5591 18.6628)" cx="111.98" cy="56.22" rx="15.66" ry="15.66"/>
			<ellipse transform="matrix(0.9732 -0.2298 0.2298 0.9732 -11.7993 30.5489)" cx="125.29" cy="65.94" rx="13.31" ry="13.31"/>
			<circle cx="134.23" cy="77.78" r="8.06"/>
			<circle cx="137.48" cy="93.84" r="14.68"/>
			<ellipse transform="matrix(0.3827 -0.9239 0.9239 0.3827 -16.2026 189.1369)" cx="133.43" cy="106.69" rx="13.88" ry="13.88"/>
			<ellipse transform="matrix(0.9732 -0.2298 0.2298 0.9732 -24.89 33.1405)" cx="129.87" cy="123.45" rx="10.65" ry="10.65"/>
			<circle cx="119.22" cy="132.14" r="8.42"/>
			<polygon points="108.66,73.01 129.34,69.72 134.23,84.02 127.64,105.89 113.18,105.89 			"/>
		</g>
		<g>
			<circle cx="47.5" cy="104.63" r="13.6"/>
			<ellipse transform="matrix(0.7071 -0.7071 0.7071 0.7071 -69.4811 74.8092)" cx="55.56" cy="121.28" rx="11.67" ry="11.67"/>
			<circle cx="64.26" cy="127.98" r="11.67"/>
			<circle cx="85.88" cy="56.09" r="15.66"/>
			<ellipse transform="matrix(0.7071 -0.7071 0.7071 0.7071 -22.0485 65.211)" cx="67.69" cy="59.22" rx="14.3" ry="14.3"/>
			<circle cx="55.56" cy="72.89" r="8.06"/>
			<circle cx="51.39" cy="86.54" r="12.87"/>
		</g>
		<path d="M155.46,157c0-15.95-12.93-28.88-28.88-28.88H55.04c-15.95,0-28.88,12.93-28.88,28.88v23.07h129.3V157z"/>
		<rect x="70.19" y="102.91" class="st0" width="41.24" height="46.87"/>
		<g>
			<path class="st1" d="M124.12,80.92v27.7c0,11.91-7.07,23.02-17.24,28.12c-3.72,1.87-7.85,2.93-12.22,2.93h-5.69
				c-4.36,0-8.5-1.06-12.22-2.93c-10.17-5.1-17.24-16.21-17.24-28.12v-27.7c0-11.73,9.51-21.23,21.23-21.23h22.15
				C114.62,59.69,124.12,69.19,124.12,80.92z"/>
			<path d="M97.64,135.01c0-4.79-2.61-8.67-5.83-8.67c-3.22,0-5.83,3.88-5.83,8.67c0,0.04,0,0.08,0,0.12h11.64
				C97.64,135.09,97.64,135.05,97.64,135.01z"/>
			<g>
				<path class="st0" d="M124.12,105.01v3.61c0,11.91-7.07,23.02-17.24,28.12v-10.88C106.88,115.5,114.3,106.88,124.12,105.01z"/>
				<path class="st0" d="M76.75,125.86v10.88c-10.17-5.1-17.24-16.21-17.24-28.12v-3.61C69.33,106.87,76.75,115.5,76.75,125.86z"/>
			</g>
			<path d="M124.13,102.88v5.73c0,16.27-13.19,31.05-29.46,31.05h-5.69c-16.27,0-29.46-14.78-29.46-31.05v-5.73
				c0,16.27,13.19,29.47,29.46,29.47h5.69C110.94,132.35,124.13,119.15,124.13,102.88z"/>
		</g>
		<g>
			<path d="M105.32,97.08c-2.3,0-3.09,1.76-3.49,3.93h9.43C110.41,99.67,107.62,97.08,105.32,97.08z"/>
			<g>
				<path d="M115.5,97c-5.88,0-11.83-1.15-17.28-3.34l1.86-4.64c5.09,2.04,10.67,3.08,16.16,2.97l0.09,5
					C116.05,97,115.77,97,115.5,97z"/>
			</g>
		</g>
		<g>
			<path d="M77.44,97.08c2.3,0,3.09,1.76,3.49,3.93H71.5C72.35,99.67,75.14,97.08,77.44,97.08z"/>
			<g>
				<path d="M67.26,97c-0.28,0-0.55,0-0.83-0.01l0.09-5c5.51,0.11,11.07-0.92,16.16-2.97l1.86,4.64C79.1,95.85,73.14,97,67.26,97z"
					/>
			</g>
		</g>
		<g>
			<path d="M80.33,121.72l-1.15-3.83c3.39-1.02,9.18-5.15,11.12-6.66l1.23-0.96l1.23,0.97c2.24,1.76,6.77,4.97,11.93,6.67l-1.25,3.8
				c-4.9-1.62-9.24-4.41-11.92-6.39C89.18,117.03,84.02,120.61,80.33,121.72z"/>
		</g>
		<path d="M82.2,73.9c-1.6,4.25-2.78,8.67-4.72,12.77c-5.46,11.58-17.19,19.96-29.91,21.39c1.8-8.81,0.39-18.07,2.49-26.81
			c2.53-10.54,10.3-19.57,20.14-24.11c4.33-1.99,9.03-3.13,13.78-3.44c2.6-0.17,10.54-1.01,11.91,1.86c1.67,3.5-4.82,5.25-6.62,6.84
			C85.87,65.45,83.78,69.7,82.2,73.9z"/>
		<path d="M90.81,58.78c4.56-0.07,9.23,0.86,13.07,3.31c3.85,2.45,6.77,6.54,7.2,11.08c0.35,3.76-0.97,7.48-0.99,11.26
			c-0.02,3.78,2.04,8.15,5.8,8.52c-2.99-2.29-3.28-6.76-2.34-10.41c0.94-3.65,2.8-7.08,3.19-10.83c0.43-4.19-1.14-8.55-4.16-11.5
			c-3.02-2.95-7.41-4.42-11.59-3.89L90.81,58.78z"/>
	</g>
	<g>
		<path d="M156.77,169.67c1.28,0.78,2.56,1.57,3.84,2.35c0.28-4.45-0.95-8.99-3.43-12.7c2.19,0.99,4.38,1.97,6.57,2.96
			c-0.58-5.26-3.03-10.29-6.82-13.98c2.67,1.4,5.35,2.81,8.02,4.21c-1.99-6.32-6.17-11.92-11.65-15.62c2.95,0.3,5.91,0.59,8.86,0.89
			c-4.53-4.65-10.62-7.76-17.04-8.69c3.44-1.41,7.21-1.98,10.91-1.67c-6.87-2.64-25.06-8.02-29.58,0.89
			c-2.28,4.5,0.8,6.59,4.09,9.09c4.11,3.12,7.73,6.74,10.59,11.05c5.89,8.86,8.6,21.01,7.15,31.63h10.43
			C159.03,176.59,158.48,172.58,156.77,169.67z"/>
		<path d="M38.88,148.44c2.86-4.3,6.48-7.93,10.59-11.05c3.29-2.49,6.37-4.59,4.09-9.09c-4.52-8.91-22.71-3.53-29.57-0.89
			c3.7-0.32,7.48,0.26,10.91,1.67c-6.43,0.93-12.52,4.04-17.04,8.69c2.95-0.3,5.91-0.59,8.86-0.89c-5.49,3.71-9.67,9.31-11.65,15.62
			c2.67-1.4,5.35-2.81,8.02-4.21c-3.78,3.7-6.24,8.73-6.82,13.98c2.19-0.99,4.38-1.97,6.57-2.96c-2.48,3.71-3.7,8.24-3.43,12.7
			c1.28-0.78,2.56-1.57,3.84-2.35c-1.71,2.91-2.29,6.92-1.96,10.4h10.79C30.59,169.45,32.98,157.3,38.88,148.44z"/>
	</g>
</g>
</svg>
