<?xml version="1.0" encoding="utf-8"?>
<!-- Generator: Adobe Illustrator 24.0.0, SVG Export Plug-In . SVG Version: 6.00 Build 0)  -->
<svg version="1.1" id="Layer_1" xmlns="http://www.w3.org/2000/svg" xmlns:xlink="http://www.w3.org/1999/xlink" x="0px" y="0px"
	 width="180px" height="180px" viewBox="0 0 180 180" style="enable-background:new 0 0 180 180;" xml:space="preserve">
<style type="text/css">
	.st0{fill:#100C17;}
	.st1{fill:#CB9978;}
	.st2{fill:#E2B99A;}
	.st3{fill:#6E6F71;}
	.st4{fill:#A7A9AC;}
</style>
<g>
	<rect x="69.97" y="111.49" class="st0" width="40.07" height="48.56"/>
	<g>
		<path class="st1" d="M122.03,101.64L122.03,101.64c3.19,0.35,6.09-1.97,6.44-5.16l0.95-8.59c0.35-3.19-1.97-6.09-5.16-6.44l0,0
			c-3.19-0.35-6.09,1.97-6.44,5.16l-0.95,8.59C116.52,98.39,118.84,101.29,122.03,101.64z"/>
		<path class="st1" d="M57.97,101.64L57.97,101.64c-3.19,0.35-6.09-1.97-6.44-5.16l-0.95-8.59c-0.35-3.19,1.97-6.09,5.16-6.44l0,0
			c3.19-0.35,6.09,1.97,6.44,5.16l0.95,8.59C63.48,98.39,61.16,101.29,57.97,101.64z"/>
		<path class="st2" d="M53.27,67.24l3,47.05l17.34,16.39l7.8,7.38l1.81,1.73h13.42l1.83-1.73l7.8-7.38l17.34-16.39
			c0,0,3-24.99,3-47.05c0-16.4-12.52-29.7-27.97-29.7H81.24C65.79,37.54,53.27,50.84,53.27,67.24z"/>
		<polygon class="st3" points="81.4,138.06 83.22,139.78 96.64,139.78 98.47,138.06 102.73,134.03 77.14,134.03 		"/>
		<g>
			<polygon class="st1" points="125.48,94.3 123.61,114.29 106.27,130.68 106.27,105.83 			"/>
			<polygon class="st1" points="73.6,105.83 73.6,130.68 56.27,114.29 54.99,94.3 			"/>
		</g>
		<path class="st4" d="M128.6,64.56l-3.12,32.94l-5.62-31.39c-0.74-4.91-4.96-8.55-9.92-8.55H70.21c-4.97,0-9.19,3.63-9.92,8.55
			L55.48,98.2l-3.93-33.64c1.2-15.42,13.88-27.55,29.36-27.55h18.32C114.71,37.01,127.4,49.14,128.6,64.56z"/>
		<path class="st0" d="M128.6,64.56c-1.2-15.42-13.89-27.55-29.37-27.55H80.91c-15.48,0-28.16,12.13-29.36,27.55l0.04,0.31h8.98
			c1.2-4.27,5.11-7.31,9.65-7.31h39.72c4.54,0,8.45,3.04,9.65,7.31h8.98L128.6,64.56z"/>
		<g>
			<g>
				<path class="st0" d="M86.42,90.69c-8.37-2.72-13.09-2.72-21.46,0c0-1.66,0-2.5,0-4.16c8.37-2.72,13.09-2.72,21.46,0
					C86.42,88.19,86.42,89.03,86.42,90.69z"/>
			</g>
			<path class="st0" d="M79.93,92.23c-0.74-1.6-2.36-2.72-4.24-2.72c-1.88,0-3.5,1.12-4.24,2.72H79.93z"/>
		</g>
		<g>
			<g>
				<path class="st0" d="M116.03,90.69c-8.37-2.72-13.09-2.72-21.46,0c0-1.66,0-2.5,0-4.16c8.37-2.72,13.09-2.72,21.46,0
					C116.03,88.19,116.03,89.03,116.03,90.69z"/>
			</g>
			<path class="st0" d="M109.55,92.23c-0.74-1.6-2.36-2.72-4.24-2.72c-1.88,0-3.5,1.12-4.24,2.72H109.55z"/>
		</g>
		<g>
			<polygon class="st0" points="94.47,113.5 87.53,113.5 81.45,117.44 100.56,117.44 			"/>
			<path class="st0" d="M87.43,122.41c0.21,2.68,1.72,4.77,3.57,4.77s3.37-2.09,3.57-4.77H87.43z"/>
		</g>
	</g>
	<path class="st0" d="M147.08,179.49H32.92v-11.56c0-11.51,9.33-20.84,20.84-20.84h72.48c11.51,0,20.84,9.33,20.84,20.84V179.49z"/>
</g>
</svg>
