<?xml version="1.0" encoding="utf-8"?>
<!-- Generator: Adobe Illustrator 24.0.0, SVG Export Plug-In . SVG Version: 6.00 Build 0)  -->
<svg version="1.1" id="Layer_1" xmlns="http://www.w3.org/2000/svg" xmlns:xlink="http://www.w3.org/1999/xlink" x="0px" y="0px"
	 width="180px" height="180px" viewBox="0 0 180 180" style="enable-background:new 0 0 180 180;" xml:space="preserve">
<style type="text/css">
	.st0{fill:#C0A22F;}
	.st1{fill:#CC2E2E;}
	.st2{fill:#CE9975;}
	.st3{fill:#E2B99A;}
	.st4{fill:#E5C026;}
	.st5{fill:#C75955;}
	.st6{fill:#D78076;}
	.st7{fill:#D8AC8E;}
	.st8{fill:#1D6A7C;}
	.st9{fill:#605121;}
</style>
<g>
	<polygon class="st0" points="58.19,44.2 43.89,134.15 81.71,134.15 76.21,44.2 	"/>
	<polygon class="st0" points="121.24,44.2 135.37,134.15 97.55,134.15 103.05,44.2 	"/>
	<path class="st1" d="M139.63,180.12H40.37v-41.71c0-11.02,8.94-19.96,19.96-19.96h59.34c11.02,0,19.96,8.94,19.96,19.96V180.12z"/>
	<polyline class="st2" points="71.39,119.55 71.39,84.45 109.19,84.45 109.19,121.17 89.74,180.58 71.39,121.17 71.39,119.55 	"/>
	<path class="st3" d="M121.41,77.25v0.05c0,4.18-1.42,8.23-4.01,11.52c0,0-4.98,5.22-10.71,10.49c-0.29,0.27-0.6,0.56-0.9,0.82
		c-0.24,0.23-0.48,0.44-0.71,0.66c-0.05,0.03-0.08,0.08-0.12,0.11c-5.42,4.86-11.11,9.37-13.71,9.37H88.3
		c-2.6,0-8.29-4.5-13.72-9.38c-0.03-0.03-0.08-0.07-0.11-0.1c-0.06-0.06-0.11-0.1-0.18-0.16c-0.24-0.22-0.48-0.43-0.7-0.64
		c-6.03-5.52-11.45-11.19-11.45-11.19c-2.6-3.28-4-7.34-4-11.52v-16.9c0-16.83,13.64-27.1,30.47-27.1h2.35
		c16.26,0,29.54,9.36,30.43,25.4l0.01,3.19l0.02,8.62L121.41,77.25z"/>
	<path class="st4" d="M121.36,58.67c-0.88-16.03-14.16-25.4-30.43-25.4l-1.17,1.6l-1.51-1.6c-16.83,0-30.13,10.27-30.13,27.1v-14.5
		c0-13.88,13.52-25.13,27.39-25.13h8.41c13.85,0,27.35,11.22,27.39,25.07L121.36,58.67z"/>
	<g>
		<path d="M106.04,68c-2.12,0-4.01,0.95-5.27,2.45h10.55C110.05,68.95,108.15,68,106.04,68z"/>
		<path d="M73.5,66.97c-2.12,0-4.01,1.35-5.27,3.48h10.55C77.51,68.33,75.61,66.97,73.5,66.97z"/>
		<polygon points="93.8,61.81 109.81,60.83 110.25,60.81 110.45,60.97 116.74,66.32 109.46,62.42 110.1,62.56 94.61,66.75 		"/>
		<polygon points="83.4,66.65 69.08,60.11 69.99,59.87 62.8,66.32 68.72,58.68 69.01,58.31 69.63,58.45 85,61.91 		"/>
	</g>
	<g>
		<g>
			<path class="st5" d="M97.55,89.75c-6.2-0.78-9.36-0.78-15.57,0c1.18-3.05,3.27-5.22,5.15-5.3c1.12-0.05,1.99,0.76,2.64,1.96
				c0.63-1.2,1.5-2,2.64-1.96C94.28,84.53,96.37,86.7,97.55,89.75z"/>
			<path class="st6" d="M81.98,89.71c1.85,2.3,4.64,3.66,7.78,3.66c3.14,0,5.93-1.36,7.78-3.66C91.35,88.93,88.19,88.93,81.98,89.71
				z"/>
		</g>
	</g>
	<g>
		<path class="st7" d="M121.41,77.25c0.01,4.2-1.41,8.27-4.01,11.57c0,0-4.98,5.22-10.71,10.49c-0.29,0.27-0.6,0.56-0.9,0.82
			c-0.24,0.23-0.48,0.44-0.71,0.66V86.14c0-3.4,1.75-6.57,4.64-8.37l11.68-7.29L121.41,77.25z"/>
		<path class="st7" d="M74.46,86.14v14.64c-0.06-0.06-0.11-0.1-0.18-0.16c-0.24-0.22-0.48-0.43-0.7-0.64
			c-6.03-5.52-11.45-11.19-11.45-11.19c-2.6-3.28-4-7.34-4-11.52v-6.8l11.7,7.3C72.7,79.57,74.46,82.74,74.46,86.14z"/>
	</g>
	<g>
		<path class="st4" d="M89.74,20.75c0,0-18.24-8.83-28.76,14.34l23.22-7.4L89.74,20.75z"/>
		<path class="st4" d="M89.74,20.75c0,0,18.24-8.83,28.76,14.34l-23.22-7.4L89.74,20.75z"/>
	</g>
	<path class="st4" d="M114.93,166.8c0.66,1.37,1.51,2.56,2.59,3.51c-1.59-7.95-0.56-15.52,1.7-23.25
		c2.22-7.61,5.19-15.06,6.13-22.93c1.12-9.34-0.69-18.69-2.83-27.75c-1.95-8.21-1.03-17.07-1.03-25.5c0-6.93,0-13.86,0-20.78
		c0-0.68-0.59-5.9-1.18-6.24l-6.89-2.69c0,0.3,0,0.61,0,0.91c0,19.85,0,36.32,0,56.17c0,13.28,0,26.56,0,39.83
		C113.42,145.42,111.17,159.01,114.93,166.8z"/>
	<path class="st4" d="M65.27,166.8c-0.66,1.37-1.51,2.56-2.59,3.51c1.59-7.95,0.56-15.52-1.7-23.25
		c-2.22-7.61-5.19-15.06-6.13-22.93c-1.12-9.34,0.69-18.69,2.83-27.75c1.95-8.21-1-16.07-1-24.49c0-6.93,2.03-14.86,2.03-21.79
		c0-0.68-0.59-3.94,0-4.28l8.06-4.65c0,0.3,0,6.69,0,7c0,19.85,0,30.24,0,50.08c0,13.28,0,26.56,0,39.83
		C66.78,145.42,69.03,159.01,65.27,166.8z"/>
	<g>
		<path class="st0" d="M99.13,30.36c3.44,0.76,6.55,2.56,9.91,3.61c1.69,0.53,3.38,0.78,5,0.07c1.62-0.72,2.51-2.77,1.58-4.28
			c2.27,2.34,4.24,5.69,3.41,8.84c-0.79,3-3.73,5.16-6.81,5.53c-3.08,0.37-6.21-0.85-8.63-2.8c-2.39-1.94-4.18-4.57-6.7-6.34
			c-2.37-1.66-4.85-2.4-7.14-0.17C92.5,31.13,94.22,29.28,99.13,30.36z"/>
		<path class="st0" d="M80.35,30.36c-3.44,0.76-6.55,2.56-9.91,3.61c-1.69,0.53-3.38,0.78-5,0.07c-1.62-0.72-2.51-2.77-1.58-4.28
			c-2.27,2.34-4.24,5.69-3.41,8.84c0.79,3,3.73,5.16,6.81,5.53c3.08,0.37,6.21-0.85,8.63-2.8c2.39-1.94,4.18-4.57,6.7-6.34
			c2.37-1.66,4.85-2.4,7.14-0.17C86.98,31.13,85.26,29.28,80.35,30.36z"/>
	</g>
	<ellipse class="st8" cx="90.29" cy="151.52" rx="5.29" ry="7.09"/>
	<g>
		<path class="st9" d="M89.52,143.8L89.52,143.8L89.52,143.8c-0.55-0.06-0.94-0.56-0.88-1.11l0,0c0.06-0.55,0.56-0.94,1.11-0.88l0,0
			c0.55,0.07,0.94,0.56,0.88,1.11l0,0c-0.06,0.51-0.5,0.89-1,0.89l0,0C89.59,143.81,89.56,143.8,89.52,143.8z M92.63,142.76
			c-0.14-0.53,0.19-1.07,0.73-1.21l0,0c0.53-0.13,1.07,0.2,1.21,0.73l0,0c0.13,0.54-0.2,1.08-0.73,1.21l0,0
			c-0.08,0.02-0.16,0.03-0.24,0.03l0,0C93.15,143.52,92.74,143.22,92.63,142.76z M85.39,142.52c-0.5-0.25-0.7-0.85-0.45-1.34l0,0
			c0.25-0.5,0.85-0.7,1.35-0.45l0,0c0.49,0.25,0.69,0.85,0.44,1.35l0,0c-0.18,0.35-0.53,0.55-0.9,0.55l0,0
			C85.68,142.63,85.53,142.59,85.39,142.52z M96.41,141.5c-0.28-0.48-0.13-1.09,0.35-1.38l0,0c0.47-0.28,1.08-0.13,1.37,0.35l0,0
			c0.28,0.47,0.13,1.08-0.35,1.37l0,0c-0.16,0.1-0.34,0.14-0.51,0.14l0,0C96.93,141.98,96.6,141.81,96.41,141.5z M81.88,140.15
			L81.88,140.15L81.88,140.15c-0.42-0.36-0.47-0.99-0.11-1.41l0,0c0.36-0.42,0.99-0.47,1.41-0.11l0,0c0.42,0.36,0.47,0.99,0.11,1.41
			l0,0c-0.2,0.23-0.48,0.35-0.76,0.35l0,0C82.3,140.39,82.07,140.32,81.88,140.15z M99.7,139.23c-0.38-0.4-0.37-1.03,0.02-1.42l0,0
			c0.4-0.38,1.03-0.37,1.42,0.03l0,0c0.38,0.4,0.37,1.03-0.03,1.41l0,0c-0.19,0.19-0.44,0.28-0.69,0.28l0,0
			C100.16,139.53,99.9,139.43,99.7,139.23z M78.96,137.19C78.96,137.19,78.96,137.19,78.96,137.19L78.96,137.19
			c-0.35-0.43-0.3-1.06,0.13-1.41l0,0c0.42-0.36,1.05-0.3,1.4,0.12h0.01c0.35,0.42,0.3,1.05-0.13,1.41l0,0
			c-0.18,0.16-0.41,0.23-0.64,0.23l0,0C79.44,137.54,79.16,137.42,78.96,137.19z M102.44,136.32c-0.44-0.33-0.54-0.96-0.22-1.4l0,0
			c0.33-0.45,0.96-0.54,1.4-0.22l0,0c0.45,0.33,0.55,0.95,0.22,1.4l0,0l0,0l0,0c-0.2,0.27-0.5,0.41-0.81,0.41l0,0
			C102.82,136.51,102.62,136.45,102.44,136.32z M76.52,133.86C76.52,133.86,76.52,133.86,76.52,133.86L76.52,133.86
			c-0.29-0.46-0.16-1.08,0.3-1.38l0,0c0.47-0.3,1.08-0.17,1.38,0.3h0.01c0.29,0.46,0.16,1.08-0.3,1.38l0,0
			c-0.17,0.11-0.36,0.16-0.54,0.16l0,0C77.04,134.32,76.72,134.16,76.52,133.86z M104.68,133.01c-0.49-0.27-0.67-0.87-0.4-1.36l0,0
			c0.26-0.49,0.87-0.67,1.35-0.4l0,0c0.49,0.26,0.67,0.87,0.41,1.35l0,0c0,0,0,0,0,0.01l0,0c-0.18,0.33-0.53,0.52-0.88,0.52l0,0
			C105,133.13,104.83,133.09,104.68,133.01z M74.49,130.3L74.49,130.3L74.49,130.3c-0.26-0.49-0.06-1.09,0.43-1.34l0,0
			c0.5-0.25,1.1-0.06,1.35,0.44l0,0c0.25,0.49,0.05,1.09-0.44,1.34l0,0c-0.15,0.07-0.3,0.11-0.45,0.11l0,0
			C75.01,130.85,74.66,130.65,74.49,130.3z M106.49,129.44c-0.52-0.21-0.76-0.8-0.55-1.31l0,0c0.21-0.51,0.79-0.75,1.3-0.55l0,0
			c0.51,0.21,0.76,0.8,0.55,1.31l0,0c-0.16,0.39-0.53,0.62-0.93,0.62l0,0C106.74,129.51,106.61,129.49,106.49,129.44z M72.8,126.57
			c-0.2-0.51,0.05-1.09,0.56-1.29l0,0c0.52-0.21,1.1,0.04,1.3,0.55l0,0c0.21,0.52-0.04,1.1-0.56,1.3l0,0
			c-0.12,0.05-0.24,0.07-0.37,0.07l0,0C73.34,127.2,72.96,126.96,72.8,126.57z M107.91,125.7c-0.53-0.16-0.83-0.72-0.67-1.25l0,0
			c0.16-0.53,0.72-0.83,1.25-0.67l0,0c0.53,0.16,0.83,0.72,0.67,1.25l0,0c-0.14,0.43-0.53,0.71-0.96,0.71l0,0
			C108.1,125.74,108.01,125.73,107.91,125.7z M71.46,122.72c-0.16-0.53,0.13-1.09,0.66-1.25l0,0c0.53-0.16,1.09,0.14,1.25,0.67l0,0
			c0.16,0.53-0.14,1.09-0.66,1.25l0,0c-0.1,0.03-0.2,0.04-0.3,0.04l0,0C71.98,123.43,71.59,123.15,71.46,122.72z M108.99,121.85
			c-0.54-0.12-0.89-0.65-0.77-1.19l0,0c0.11-0.54,0.65-0.89,1.19-0.77l0,0c0.53,0.12,0.88,0.65,0.76,1.19l0,0c0,0,0,0,0.01,0l0,0
			c-0.11,0.47-0.52,0.79-0.98,0.79l0,0C109.13,121.87,109.06,121.86,108.99,121.85z M70.44,118.77L70.44,118.77L70.44,118.77
			c-0.11-0.54,0.23-1.08,0.77-1.19l0,0c0.54-0.12,1.07,0.23,1.18,0.77h0.01c0.11,0.54-0.24,1.07-0.78,1.19l0,0
			c-0.07,0.01-0.14,0.02-0.2,0.02l0,0C70.95,119.56,70.54,119.24,70.44,118.77z"/>
	</g>
</g>
</svg>
